<?xml version="1.0" standalone="no"?>
<!DOCTYPE svg PUBLIC "-//W3C//DTD SVG 20010904//EN"
 "http://www.w3.org/TR/2001/REC-SVG-20010904/DTD/svg10.dtd">
<svg version="1.0" xmlns="http://www.w3.org/2000/svg"
 width="300.000000pt" height="2500.000000pt" viewBox="0 0 300.000000 2500.000000"
 preserveAspectRatio="xMidYMid meet">
<metadata>
Created by potrace 1.10, written by Peter Selinger 2001-2011
</metadata>
<g transform="translate(0.000000,355.000000) scale(0.050000,-0.050000)"
fill="#504e54" stroke="none" id="H1">
<path d="M2829 6964 c-215 -135 -629 -1013 -629 -1332 0 -81 124 68 161 193
396 1359 818 1412 1220 156 85 -265 109 -319 150 -338 70 -32 66 12 -31 331
-246 815 -568 1181 -871 990z"/>
<path d="M2790 6033 c-142 -66 -222 -164 -276 -335 -7 -20 -56 -41 -137 -59
-574 -121 -1195 -693 -1429 -1316 -63 -167 -67 -173 -150 -200 -420 -140 -441
-749 -34 -955 63 -32 96 -62 96 -86 0 -20 22 -106 50 -190 28 -84 50 -157 50
-162 0 -5 -61 -37 -135 -71 -74 -33 -272 -125 -440 -203 l-305 -143 0 -175 c0
-97 7 -180 16 -185 8 -6 240 97 514 228 582 280 504 263 590 126 247 -391 762
-741 1278 -869 1660 -412 3131 1183 2590 2808 -29 86 -47 161 -42 167 6 6 198
97 427 204 229 106 428 201 442 209 31 20 36 374 5 374 -11 0 -250 -108 -531
-240 -604 -283 -507 -265 -615 -115 -249 349 -768 712 -1137 795 -105 24 -114
30 -134 99 -85 282 -417 423 -693 294z m121 -165 c62 -29 122 -128 94 -156
-27 -27 -94 -9 -137 38 -52 57 -84 62 -137 23 -59 -43 -24 -84 93 -110 180
-40 236 -116 184 -252 -32 -83 -219 -117 -328 -61 -111 57 -137 170 -40 170
39 0 60 -10 60 -29 0 -66 135 -93 190 -38 46 46 9 77 -128 111 -144 35 -191
94 -161 203 34 120 174 166 310 101z m416 -16 c149 -62 143 -217 -13 -332
l-95 -70 109 -6 c95 -5 110 -12 117 -50 5 -34 13 -25 34 41 15 47 29 85 32 85
64 0 483 -195 619 -287 220 -151 603 -546 566 -584 -9 -9 -333 -169 -342 -169
-2 0 -4 116 -4 258 0 226 -5 263 -39 300 -61 68 -72 19 -68 -306 l3 -298 -88
-45 c-169 -85 -167 -86 -174 66 -6 126 -65 575 -95 718 -11 53 -6 65 29 76 60
19 52 51 -12 51 -31 0 -77 23 -110 54 -67 64 -66 74 -16 -214 41 -234 124
-864 115 -870 -3 -2 -122 -59 -265 -128 l-260 -124 -88 31 c-48 17 -113 31
-145 31 l-57 0 0 510 0 509 55 13 c88 20 219 103 265 168 l43 60 -192 0 c-120
0 -191 8 -191 21 0 50 63 135 159 216 109 92 125 148 55 191 -35 21 -78 -10
-99 -73 -3 -10 -30 -15 -58 -12 -51 7 -52 10 -30 76 36 108 123 142 240 93z
m-807 -378 c0 -114 155 -286 311 -346 l89 -33 0 -207 c0 -235 25 -207 -220
-249 -429 -74 -780 -482 -780 -908 l0 -101 -197 0 -197 0 -23 112 c-40 192
-179 342 -362 390 -106 28 -107 18 8 260 246 522 657 890 1211 1086 144 51
160 51 160 -4z m3360 -469 l0 -136 -441 -207 c-242 -114 -443 -204 -446 -200
-47 63 -113 206 -100 217 9 8 157 80 327 159 171 79 382 179 470 221 88 43
167 78 175 79 8 1 15 -59 15 -133z m-3169 -454 c60 -61 62 -105 6 -165 -70
-74 -159 -58 -208 37 -68 131 95 235 202 128z m2078 -42 c73 -124 112 -96
-588 -423 l-628 -293 -32 49 c-17 26 -52 69 -78 95 -56 58 -62 53 197 170 116
52 395 184 620 292 484 232 443 224 509 110z m128 -294 c604 -1861 -1472
-3436 -3071 -2331 -218 151 -620 571 -581 607 3 3 223 108 489 235 l485 229
49 -82 c54 -90 176 -227 244 -274 39 -27 44 -59 65 -419 33 -545 37 -574 89
-587 63 -17 62 -26 36 452 -32 596 -29 581 -122 645 -67 47 -260 267 -260 298
0 6 80 52 178 101 99 50 184 99 191 110 7 11 52 -6 106 -40 394 -250 905 87
791 521 l-19 70 139 65 c77 36 146 65 154 65 17 0 -28 -295 -73 -480 -77 -313
-243 -594 -432 -730 l-56 -40 -40 -518 c-43 -551 -43 -542 18 -523 56 18 56
19 94 514 l35 447 136 144 c100 106 159 192 222 325 96 201 80 193 306 153
l140 -24 6 -184 6 -184 60 0 60 0 -3 664 -3 664 220 101 c122 56 227 108 236
116 37 38 68 6 105 -110z m-2361 77 c187 -98 265 -274 166 -374 -95 -94 -242
-46 -358 116 -122 172 12 352 192 258z m-278 -261 c256 -133 267 -503 12 -439
-81 20 -49 77 50 91 60 8 80 96 31 136 -26 22 -31 21 -31 -5 0 -91 -146 -137
-229 -71 -173 136 -27 388 167 288z m1966 -382 l-7 -402 -123 26 c-68 15 -145
26 -171 27 -42 0 -46 7 -33 55 39 153 69 323 70 388 0 168 17 197 147 259 66
31 121 55 122 52 1 -2 -2 -185 -5 -405z m-3317 269 c45 -21 93 -93 93 -139 0
-37 -110 -20 -135 21 -31 49 -129 54 -167 8 -36 -44 13 -79 135 -97 271 -41
233 -331 -43 -331 -119 0 -230 72 -230 148 0 49 113 42 140 -8 27 -50 143 -55
182 -8 27 33 -17 88 -71 88 -196 1 -302 171 -182 291 55 55 189 67 278 27z
m409 -263 l-6 -265 -58 0 -58 0 4 174 4 173 -66 7 c-87 8 -96 83 -11 92 30 4
64 24 76 45 12 23 41 39 70 39 l50 0 -5 -265z m1636 205 c37 0 128 -102 128
-143 0 -52 -102 -50 -135 3 -29 46 -128 55 -161 14 -35 -41 -2 -68 126 -101
192 -50 245 -161 132 -275 -101 -101 -323 -70 -378 52 -41 90 70 116 117 28
25 -47 143 -52 180 -7 36 44 -5 77 -131 108 -260 63 -201 385 60 330 22 -5 50
-9 62 -9z m484 -51 c47 -34 59 -123 24 -188 -14 -27 -11 -44 10 -61 48 -40 37
-155 -19 -211 -96 -96 -311 -39 -311 82 0 64 90 70 110 8 10 -31 27 -40 67
-35 80 9 79 123 -2 132 -73 9 -76 75 -4 92 61 16 83 61 49 102 -37 45 -79 36
-100 -20 -24 -62 -120 -73 -120 -13 0 120 185 190 296 112z m-1016 -402 c-247
-116 -240 -114 -252 -52 -8 42 -23 55 -61 55 -44 0 -49 -7 -39 -54 10 -51 6
-54 -84 -67 -52 -7 -127 -20 -168 -29 l-74 -15 -6 82 c-5 69 -14 84 -51 89
-44 7 -45 2 -45 -180 l0 -188 -265 -124 c-320 -150 -283 -151 -336 11 -25 74
-49 146 -54 160 -6 16 11 25 48 25 141 1 387 182 419 309 l12 51 553 -1 553
-2 -150 -70z m214 -63 c58 -122 115 -84 -703 -472 -814 -387 -711 -357 -774
-228 l-51 104 332 154 c183 85 512 239 732 344 220 104 405 190 410 191 6 1
30 -41 54 -93z m-714 -154 c0 -13 -154 -90 -181 -90 -55 0 2 49 82 71 49 13
91 25 94 26 3 2 5 -1 5 -7z m-894 -620 l54 -111 -45 -18 c-25 -9 -237 -108
-472 -219 -235 -111 -431 -202 -435 -202 -5 0 -8 61 -8 135 l0 135 415 194
c228 106 420 194 426 195 6 0 35 -49 65 -109z"/>
<path d="M2199 5355 c-17 -22 -66 -46 -110 -54 l-79 -14 56 -27 c38 -19 52
-37 43 -59 -52 -133 -139 -1058 -88 -941 11 27 34 63 49 80 15 16 42 138 60
270 18 132 50 347 72 478 46 273 45 330 -3 267z"/>
<path d="M1692 5054 c-76 -79 -71 -1372 5 -1366 60 4 62 35 63 716 0 691 -3
718 -68 650z"/>
<path d="M2573 4527 c-27 -27 -12 -86 27 -107 48 -26 80 -11 80 37 0 60 -70
106 -107 70z"/>
<path d="M2407 4190 c-24 -63 154 -241 227 -226 66 12 50 73 -42 165 -92 92
-164 116 -185 61z"/>
<path d="M2129 3918 c-19 -61 57 -136 106 -106 19 12 38 38 42 56 16 85 -122
131 -148 50z"/>
<path d="M1640 5633 c0 -37 6 -122 13 -189 l13 -122 38 49 c21 27 58 49 82 50
41 0 42 2 9 27 -26 20 -35 55 -35 139 0 112 0 113 -60 113 -55 0 -60 -6 -60
-67z"/>
<path d="M4240 5587 c0 -84 -9 -119 -35 -139 -33 -25 -32 -27 9 -27 24 -1 61
-23 82 -51 l39 -49 13 62 c6 34 12 119 12 190 l0 127 -60 0 c-60 0 -60 -1 -60
-113z"/>
<path d="M2660 1260 c0 -232 65 -1112 84 -1135 25 -30 467 -36 485 -7 13 22
91 989 91 1137 0 102 -50 150 -89 87 -10 -17 -91 -971 -91 -1077 0 -43 -8 -45
-156 -45 l-156 0 -25 465 c-36 660 -38 675 -96 675 -43 0 -47 -8 -47 -100z"/>
<path d="M5140 700 l0 -280 60 0 60 0 0 125 0 125 100 0 100 0 0 -125 0 -125
61 0 60 0 -5 275 -6 275 -55 6 c-54 7 -55 5 -55 -105 l0 -111 -100 0 -100 0 0
110 c0 109 -1 110 -60 110 l-60 0 0 -280z"/>
<path d="M5801 921 c-12 -21 -41 -41 -66 -45 -30 -4 -47 -22 -52 -53 -6 -43
-1 -46 55 -33 l62 13 0 -193 0 -193 55 7 55 6 6 265 5 265 -50 0 c-29 0 -58
-16 -70 -39z"/>
</g>
<g transform="translate(0.000000,700.000000) scale(0.050000,-0.050000)"
fill="#504e54" stroke="none" id="H3">
<path d="M2825 6602 c-204 -149 -565 -930 -565 -1224 0 -99 97 5 139 150 318
1088 655 1309 979 642 83 -170 262 -676 262 -740 0 -32 94 -102 113 -84 54 54
-247 863 -410 1100 -146 212 -354 275 -518 156z"/>
<path d="M2876 5873 c-187 -52 -335 -217 -352 -393 -9 -98 -11 -100 -92 -121
-147 -38 -160 -43 -334 -130 -750 -376 -1185 -1100 -1151 -1919 6 -143 20
-292 32 -331 20 -69 18 -75 -74 -170 -86 -89 -144 -205 -146 -291 0 -16 -107
-75 -255 -140 l-254 -112 5 -108 c13 -282 -1 -277 343 -115 l261 123 80 -72
c116 -105 274 -148 429 -115 l119 24 47 -61 c26 -33 121 -116 212 -184 810
-612 1939 -559 2664 124 l140 132 123 -9 c441 -34 696 452 409 778 l-78 89 31
109 c76 272 28 855 -93 1129 l-37 84 432 196 c238 108 436 199 440 202 21 16
-24 348 -47 348 -14 0 -239 -99 -501 -220 -262 -121 -478 -218 -480 -215 -2 3
-58 73 -125 157 -66 84 -166 192 -223 240 l-103 88 13 212 c16 246 5 303 -58
294 -39 -5 -44 -20 -49 -141 -4 -96 -13 -135 -32 -135 -64 0 -74 -55 -13 -67
54 -11 140 -101 117 -124 -5 -5 -40 13 -78 41 -86 63 -498 270 -538 270 -117
1 -180 42 -180 116 -2 274 -321 494 -604 417z m43 -222 c56 -29 81 -68 81
-123 0 -43 -87 -34 -115 12 -26 42 -95 52 -143 22 -47 -30 -8 -79 82 -101 198
-49 259 -160 148 -271 -102 -102 -372 -35 -372 92 0 56 111 54 126 -3 16 -60
184 -50 184 10 0 32 -25 47 -127 73 -143 38 -162 57 -163 160 0 134 158 202
299 129z m400 -20 c141 -73 114 -193 -79 -349 l-50 -41 105 0 c91 -1 105 -6
105 -41 0 -34 -13 -40 -95 -40 -52 0 -129 -6 -170 -13 -125 -21 -107 69 45
215 127 121 134 136 96 174 -41 41 -94 28 -108 -26 -18 -72 -108 -72 -108 1 0
116 140 181 259 120z m-751 -446 c61 -115 232 -245 321 -245 27 0 31 -75 31
-616 l0 -617 -70 -33 c-77 -37 -143 -130 -162 -227 -11 -57 -405 -279 -436
-245 -119 131 -93 1311 42 1878 l12 50 -49 -45 c-27 -25 -69 -45 -93 -45 -49
0 -59 -30 -17 -46 23 -9 23 -33 2 -147 -113 -607 -118 -1265 -11 -1581 41
-121 53 -110 -138 -136 -49 -6 -110 -17 -135 -23 l-45 -11 0 877 0 877 -49
-60 -50 -60 0 -894 -1 -894 -71 -34 c-69 -33 -75 -32 -174 14 -76 36 -133 47
-226 45 l-125 -2 -11 72 c-153 968 365 1833 1293 2163 135 48 128 49 162 -15z
m1014 24 c384 -133 691 -341 917 -619 134 -165 138 -158 -173 -284 -17 -7 -23
48 -23 203 -1 178 -7 220 -39 261 -58 73 -64 48 -64 -249 l0 -273 -110 -54
c-147 -72 -150 -71 -150 51 -1 102 -69 629 -91 697 -7 24 4 39 35 50 45 14 44
15 -14 34 -33 10 -80 38 -105 60 -55 50 -55 50 -6 -244 21 -128 49 -321 63
-430 17 -143 34 -208 61 -235 46 -46 46 -51 0 -75 -30 -17 -57 0 -156 96 -189
184 -666 366 -615 235 8 -22 2 -33 -20 -33 -29 0 -33 31 -28 264 l6 264 65 16
c133 35 270 149 311 261 16 43 26 43 136 4z m2138 -396 c0 -38 5 -94 12 -126
l11 -59 -406 -186 c-224 -102 -416 -190 -427 -194 -19 -8 -144 207 -128 219 5
3 112 52 238 108 127 57 325 148 440 203 253 120 260 121 260 35z m-2435 -413
c19 -22 52 -40 72 -40 68 0 92 -53 39 -86 -303 -188 -396 -232 -416 -194 -32
60 -27 68 115 149 74 43 138 80 142 83 3 2 -8 27 -26 54 -26 39 -27 52 -7 60
42 17 45 16 81 -26z m1438 -147 c22 -42 37 -79 33 -81 -3 -2 -105 -48 -226
-101 -121 -53 -295 -133 -386 -176 -91 -44 -168 -76 -171 -72 -38 59 -98 226
-83 231 11 5 182 83 380 175 400 185 370 183 453 24z m139 -363 c50 -168 70
-719 33 -891 l-15 -72 -95 19 c-137 28 -295 -21 -399 -124 l-78 -79 -219 121
c-121 67 -223 126 -229 131 -5 4 15 26 45 48 30 22 51 48 45 57 -5 8 3 52 19
96 l28 81 -60 -21 c-51 -18 -66 -14 -109 26 -104 98 0 274 132 224 l60 -23 0
84 c0 46 -8 112 -18 146 -17 60 96 147 192 147 9 0 13 -171 10 -380 l-6 -380
-44 9 c-117 26 -144 22 -150 -22 -5 -35 7 -46 60 -57 122 -24 132 -31 144 -98
8 -43 27 -71 51 -77 50 -13 56 64 54 631 l-2 435 229 106 c267 124 243 134
322 -137z m-1341 209 c243 -129 24 -404 -222 -279 -93 48 -97 36 -26 -69 51
-74 37 -132 -32 -131 -16 1 -185 302 -175 313 33 33 158 27 244 -11 112 -50
156 -53 190 -12 38 46 9 90 -59 90 -82 0 -124 72 -57 99 62 25 91 25 137 0z
m225 -359 c115 -91 85 -216 -78 -319 -176 -112 -301 -95 -347 47 -57 173 278
387 425 272z m-671 -193 c27 -7 45 -27 45 -51 0 -21 8 -54 19 -73 26 -50 -2
-83 -89 -103 -157 -35 -213 46 -118 171 55 72 68 77 143 56z m-378 -226 c-4
-11 -232 -145 -507 -298 l-500 -279 -35 43 c-19 24 -34 48 -35 54 0 14 1021
494 1057 497 14 1 23 -7 20 -17z m60 -199 c-41 -50 -810 -435 -830 -415 -10 9
820 471 850 472 17 1 9 -19 -20 -57z m736 -88 c141 -81 366 -207 500 -282
l243 -134 -1 -135 c-1 -149 32 -233 128 -335 l59 -62 -116 -106 c-747 -685
-1813 -671 -2644 36 l-67 57 71 93 c76 100 119 246 102 356 l-10 68 246 107
c135 59 339 152 452 205 113 54 214 98 224 98 9 0 48 32 85 71 60 64 72 69
122 50 84 -32 176 -25 253 18 93 51 63 60 353 -105z m-1604 -1 c-57 -38 -109
-55 -109 -33 0 25 62 59 109 59 40 1 40 1 0 -26z m2738 -334 c75 -59 71 -119
-7 -119 -33 0 -60 9 -60 19 0 32 -70 60 -118 47 -88 -23 -44 -91 78 -121 179
-46 230 -136 140 -251 -97 -123 -380 -60 -380 85 0 36 89 23 125 -19 54 -63
175 -48 175 21 0 27 -23 44 -85 59 -149 39 -155 42 -187 91 -105 160 158 315
319 188z m-3427 -9 c57 -29 100 -85 100 -129 0 -38 -109 -23 -135 19 -30 48
-110 53 -146 9 -34 -41 -12 -58 125 -97 178 -51 223 -148 118 -254 -112 -111
-382 -48 -382 90 0 51 114 42 130 -9 19 -60 180 -50 180 11 0 32 -22 45 -110
67 -135 33 -180 70 -180 152 0 142 157 215 300 141z m3848 -36 c39 -53 40 -59
8 -114 -28 -50 -29 -61 -4 -81 71 -59 22 -205 -80 -238 -117 -39 -232 22 -232
123 0 53 93 48 110 -5 16 -49 85 -46 117 4 26 42 -14 97 -69 97 -56 0 -50 76
7 84 29 4 47 22 51 51 10 65 -53 83 -97 28 -36 -44 -119 -60 -119 -22 0 140
219 192 308 73z m-3452 -209 l-6 -255 -55 -6 -55 -7 0 172 0 171 -60 0 c-84 0
-83 68 0 97 33 12 66 35 72 52 7 17 34 31 61 31 l48 0 -5 -255z m-785 -186
c28 -55 28 -61 -5 -73 -20 -7 -136 -60 -259 -117 -252 -118 -246 -120 -247 73
l0 91 225 109 225 108 15 -66 c8 -36 29 -92 46 -125z"/>
<path d="M3871 3408 c-31 -31 -31 -36 -2 -66 39 -39 101 -8 101 50 0 49 -56
59 -99 16z"/>
<path d="M3568 3639 c-205 -101 -222 -247 -18 -151 130 60 185 120 150 162
-32 38 -34 38 -132 -11z"/>
<path d="M3562 2772 c-44 -59 -120 -140 -168 -180 -69 -56 -86 -83 -80 -119 5
-25 -5 -231 -22 -457 -41 -531 -42 -502 13 -485 25 8 48 16 51 19 4 4 23 214
43 469 l37 464 99 99 c145 147 199 249 147 277 -35 19 -50 8 -120 -87z"/>
<path d="M2355 2825 c-62 -14 -30 -72 136 -245 l105 -110 32 -420 c18 -231 32
-431 32 -444 0 -28 55 -86 81 -86 50 0 -25 1019 -77 1050 -19 11 -88 75 -154
141 -77 79 -132 119 -155 114z"/>
<path d="M1734 5487 c-8 -7 -14 -113 -14 -235 l0 -222 52 65 c28 36 68 65 88
65 58 0 64 32 10 56 -42 20 -49 37 -54 148 -6 121 -37 168 -82 123z"/>
<path d="M2700 1195 c0 -138 56 -938 71 -1010 12 -53 460 -72 480 -20 9 24 89
1021 89 1110 0 47 -65 65 -90 25 -11 -18 -88 -892 -89 -1015 -1 -43 -9 -45
-147 -45 l-146 0 -35 497 c-40 564 -43 583 -95 583 -33 0 -38 -16 -38 -125z"/>
<path d="M4940 640 l0 -260 60 0 c60 0 60 0 60 119 l0 120 95 -5 95 -4 -7
-115 -7 -115 62 0 62 0 0 260 0 260 -63 0 -62 0 10 -100 9 -100 -97 0 -97 0 0
100 c0 98 -1 100 -60 100 l-60 0 0 -260z"/>
<path d="M5461 827 c-54 -69 -52 -107 7 -107 31 0 51 14 58 42 8 29 24 39 58
35 65 -10 66 -104 1 -113 -57 -8 -63 -84 -7 -84 55 0 95 -55 69 -97 -33 -51
-108 -54 -121 -5 -14 54 -106 59 -106 6 0 -121 209 -178 299 -80 49 52 54 160
10 197 -21 17 -24 32 -10 46 34 34 24 144 -16 180 -60 54 -192 44 -242 -20z"/>
</g>
<g transform="translate(0.000000,1100.000000) scale(0.050000,-0.050000)"
fill="#504e54" stroke="none" id="H4">
<path d="M2950 6601 c-235 -54 -438 -388 -620 -1021 -85 -297 -86 -307 -21
-277 42 19 65 70 142 313 374 1176 728 1189 1112 41 158 -474 260 -519 127
-57 -206 715 -464 1064 -740 1001z"/>
<path d="M2863 5668 c-109 -55 -182 -133 -231 -250 -27 -65 -39 -72 -185 -108
-593 -146 -1158 -670 -1379 -1279 -42 -115 -47 -121 -124 -135 -513 -87 -554
-842 -53 -987 l101 -30 43 -144 c51 -175 97 -133 -392 -356 l-408 -186 14
-162 c8 -88 21 -168 30 -177 8 -9 228 82 488 202 l472 219 51 -87 c192 -328
709 -712 1111 -825 117 -33 131 -43 174 -125 212 -402 797 -384 956 31 29 76
42 88 107 98 506 81 1177 754 1351 1355 l32 113 98 11 c592 70 594 935 3 989
-85 7 -122 19 -122 38 0 16 -18 79 -40 142 -47 135 -74 109 270 264 154 70
341 158 416 195 l136 68 -12 94 c-27 209 -34 244 -51 244 -10 0 -231 -99 -492
-220 -261 -121 -475 -217 -476 -215 -133 287 -781 786 -1095 843 -65 12 -77
23 -95 88 -77 285 -422 429 -698 292z m180 -188 c67 -67 67 -107 -2 -117 -29
-4 -56 9 -75 36 -40 57 -156 51 -156 -8 0 -30 24 -45 110 -66 180 -46 246
-179 138 -277 -105 -95 -378 -21 -378 103 0 45 106 36 135 -11 37 -59 185 -50
185 11 0 33 -47 59 -139 76 -114 22 -161 64 -161 144 0 166 218 234 343 109z
m393 -1 c98 -91 77 -204 -55 -291 -106 -70 -102 -91 14 -84 85 5 96 1 101 -39
7 -44 2 -45 -175 -45 -113 0 -181 8 -181 21 0 48 62 134 148 205 92 76 112
126 69 169 -29 29 -97 -3 -97 -46 0 -19 -21 -29 -62 -29 -49 0 -60 7 -50 32 7
17 12 40 12 50 0 90 197 131 276 57z m-818 -378 c31 -123 151 -264 262 -309
l80 -32 -1 -545 0 -545 -85 -40 c-55 -26 -98 -66 -124 -115 l-40 -75 -573 0
-572 0 -22 88 c-33 130 -135 253 -257 312 -124 59 -121 46 -44 232 205 492
609 866 1156 1069 197 74 190 75 220 -40z m1230 -54 c285 -143 556 -362 708
-574 l66 -93 -153 -70 c-85 -38 -157 -70 -161 -70 -5 0 -8 102 -8 227 0 215
-2 228 -50 273 l-50 47 0 -301 0 -300 -155 -71 -155 -71 -105 99 c-163 154
-558 306 -654 252 -27 -15 -31 6 -31 163 l0 180 75 14 c174 31 335 170 383
329 29 96 27 96 290 -34z m1860 -292 c6 -36 13 -93 17 -128 l7 -62 -398 -188
c-220 -103 -406 -190 -414 -193 -15 -6 -149 216 -136 224 3 2 123 57 266 121
143 65 341 156 440 203 219 104 206 102 218 23z m-998 -524 c33 -60 55 -113
50 -117 -6 -5 -127 -63 -270 -129 -143 -65 -304 -141 -359 -169 l-98 -50 -58
121 c-32 67 -50 125 -41 128 9 3 169 77 356 164 187 87 345 159 351 159 6 1
37 -47 69 -107z m-1183 -64 c131 -131 -5 -328 -262 -379 -131 -26 -253 191
-153 273 46 39 77 -13 69 -114 -4 -55 27 -74 93 -58 51 13 51 13 10 42 -58 41
-75 139 -35 201 65 99 198 115 278 35z m1311 -230 c23 -68 40 -125 37 -127 -3
-2 -40 -24 -82 -49 -89 -54 -185 -177 -203 -262 l-13 -59 -244 0 -244 0 -23
145 c-13 80 -21 147 -18 149 2 3 37 19 78 36 l74 31 0 -148 c0 -130 5 -150 39
-158 57 -15 61 -4 62 183 l0 172 225 104 c279 129 262 130 312 -17z m-1123
-102 c122 -131 28 -292 -217 -372 -173 -57 -302 118 -188 254 114 135 330 198
405 118z m-2715 -213 c66 -48 79 -122 21 -122 -24 0 -68 19 -100 42 -65 49
-141 37 -141 -22 0 -35 97 -80 172 -80 114 0 167 -177 78 -260 -102 -96 -348
-44 -366 77 -9 59 95 61 131 3 40 -64 165 -48 165 22 0 28 -28 45 -115 69
-123 35 -185 87 -185 157 0 144 204 213 340 114z m380 -232 l0 -250 -60 0 -60
0 0 170 0 170 -60 0 c-47 0 -60 9 -60 40 0 27 13 40 40 40 22 0 56 18 75 40
95 111 125 61 125 -210z m2585 195 c54 -62 59 -115 14 -172 -78 -99 -239 -53
-239 69 0 106 158 179 225 103z m1057 -23 c77 -78 76 -122 -2 -122 -40 0 -60
10 -60 30 0 37 -96 62 -138 36 -62 -39 -34 -75 81 -106 177 -47 227 -112 175
-227 -66 -144 -379 -115 -402 37 -9 59 79 67 118 11 40 -58 176 -52 176 8 0
30 -26 46 -116 73 -146 43 -174 67 -174 147 0 162 219 235 342 113z m364 15
c75 -39 102 -141 51 -192 -17 -17 -14 -31 10 -55 90 -90 -2 -250 -144 -250
-138 0 -247 162 -118 176 38 5 55 -3 55 -22 0 -41 49 -77 86 -63 73 28 51 129
-28 129 -57 0 -47 70 13 97 63 29 58 90 -8 100 -33 4 -49 -6 -57 -35 -15 -58
-106 -59 -106 -1 0 101 145 169 246 116z m-2253 -109 c88 -116 -69 -297 -184
-212 -92 68 -93 106 -3 199 100 103 117 105 187 13z m-522 -184 c-7 -8 -87
-47 -177 -87 l-164 -73 -18 47 c-37 94 -128 84 -95 -11 16 -47 16 -64 -3 -69
-25 -9 -278 -51 -301 -51 -7 0 -13 45 -13 100 0 86 -6 100 -39 100 -50 0 -65
-52 -59 -211 3 -72 -4 -138 -14 -147 -52 -46 -511 -238 -519 -216 -78 219 -81
234 -38 234 84 0 349 213 349 282 0 8 8 37 18 63 l18 48 535 3 c294 1 528 -4
520 -12z m1970 -54 c26 -127 128 -263 241 -321 73 -38 71 -51 -32 -304 -174
-431 -545 -816 -976 -1015 -232 -107 -246 -108 -261 -14 -27 169 -192 343
-367 387 l-86 22 0 547 c0 450 5 548 27 548 45 0 126 74 161 148 l32 68 624
-3 624 -3 13 -60z m-1826 -22 c74 -116 19 -174 -305 -324 -699 -323 -1094
-504 -1101 -504 -39 0 -122 239 -84 241 14 1 340 148 725 328 819 382 710 345
765 259z m154 -128 l51 -19 0 -541 c0 -498 -3 -542 -35 -552 -227 -72 -356
-208 -393 -413 -17 -91 -21 -91 -229 -6 -331 137 -682 414 -877 692 l-63 92
464 213 c543 250 477 235 541 126 28 -49 96 -128 151 -175 l99 -87 12 -160 c6
-88 16 -207 22 -264 l11 -103 41 41 c52 52 48 556 -5 572 -34 10 -299 278
-299 302 0 9 69 47 153 83 96 42 179 95 223 143 39 42 73 76 76 76 3 0 28 -9
57 -20z m-1749 -660 c33 -66 52 -120 42 -120 -10 0 -214 -90 -453 -200 -239
-111 -437 -198 -440 -195 -3 3 -8 63 -12 133 l-7 128 400 185 c220 102 402
187 405 187 2 1 32 -52 65 -118z m1782 -746 c87 -58 104 -134 29 -134 -28 0
-69 18 -91 40 -48 48 -79 50 -131 10 -51 -40 -4 -81 116 -101 214 -36 235
-262 29 -308 -134 -30 -274 37 -274 132 0 62 91 67 110 7 16 -50 93 -71 149
-40 73 39 41 85 -79 115 -132 34 -180 73 -180 145 0 150 184 227 322 134z
m438 -137 c0 -110 8 -148 33 -167 36 -26 23 -102 -13 -80 -12 7 -20 -13 -20
-49 0 -54 -6 -61 -60 -61 -54 0 -60 6 -60 62 0 61 -1 61 -95 55 -123 -9 -124
40 -4 242 77 130 89 141 151 141 l68 0 0 -143z"/>
<path d="M2270 5040 c-8 -13 -32 -30 -54 -38 -28 -10 -43 -36 -47 -83 -3 -38
-25 -190 -48 -339 -85 -540 -77 -1083 17 -1097 l48 -7 -14 229 c-15 265 9 576
80 1022 48 296 52 368 18 313z"/>
<path d="M1790 4760 c-41 -45 -74 -1035 -40 -1215 21 -112 82 -87 97 40 17
138 14 1020 -3 1132 l-14 87 -40 -44z"/>
<path d="M3731 5005 c30 -176 70 -437 89 -585 30 -230 36 -248 84 -278 52 -33
42 245 -23 588 -34 183 -34 202 -5 225 28 22 28 25 1 25 -18 0 -54 18 -82 40
-67 53 -76 51 -64 -15z"/>
<path d="M3365 4089 c-52 -37 -57 -74 -14 -109 51 -43 133 6 125 75 -7 65 -49
78 -111 34z"/>
<path d="M3530 3742 c-151 -70 -212 -164 -115 -178 100 -15 291 130 245 186
-31 37 -32 37 -130 -8z"/>
<path d="M3831 3508 c-30 -29 -30 -37 -5 -63 38 -37 120 1 110 51 -9 46 -64
53 -105 12z"/>
<path d="M3816 3235 c-17 -14 -47 -74 -66 -135 -63 -200 -172 -384 -305 -516
l-127 -126 -12 -237 c-11 -225 -10 -238 30 -259 49 -26 55 -6 76 267 l13 180
116 115 c91 91 276 391 290 470 0 2 83 -11 184 -28 l184 -33 5 -171 c5 -157
10 -172 46 -172 38 0 40 15 45 325 l6 325 -51 0 c-47 0 -50 -6 -50 -102 0 -97
-3 -102 -46 -91 -25 6 -97 18 -160 25 -135 16 -137 18 -115 114 18 80 -3 96
-63 49z"/>
<path d="M3203 1460 l-46 -80 49 0 c40 0 51 12 60 65 15 98 -13 105 -63 15z"/>
<path d="M1753 5427 c-16 -17 -18 -332 -2 -373 9 -24 21 -20 59 18 27 26 73
49 104 50 l56 1 -66 29 c-64 28 -66 32 -53 117 20 134 -34 221 -98 158z"/>
<path d="M4214 5427 c-8 -7 -14 -67 -14 -131 0 -113 -3 -119 -62 -144 l-62
-26 66 -13 c37 -8 87 -38 112 -68 l45 -55 -4 220 c-5 215 -26 272 -81 217z"/>
<path d="M2729 669 c8 -187 21 -397 28 -469 l13 -130 222 -6 c275 -7 256 -30
285 366 35 481 33 536 -18 505 -53 -33 -57 -50 -85 -435 l-24 -330 -145 -3
c-145 -3 -145 -3 -145 50 0 344 -45 695 -94 742 l-52 48 15 -338z"/>
<path d="M4940 660 l0 -260 60 0 60 0 0 121 0 121 95 -6 95 -6 -7 -115 -7
-115 62 0 62 0 0 260 0 260 -63 0 -62 0 10 -100 9 -100 -97 0 -97 0 0 100 c0
98 -1 100 -60 100 l-60 0 0 -260z"/>
<path d="M5511 749 c-122 -201 -121 -229 9 -229 98 0 100 -1 100 -60 0 -51 8
-60 50 -60 42 0 50 9 50 60 0 40 10 60 30 60 17 0 30 18 30 40 0 22 -13 40
-30 40 -24 0 -30 30 -30 150 l0 150 -59 0 c-51 0 -69 -18 -150 -151z m109 -59
c0 -83 -4 -90 -50 -90 -61 0 -61 5 -6 102 54 98 56 97 56 -12z"/>
</g>
<g transform="translate(0.000000,1500.000000) scale(0.050000,-0.050000)"
fill="#504e54" stroke="none" id ="H140">
<path d="M2869 6882 c-204 -92 -417 -473 -570 -1018 -32 -116 -59 -213 -59
-216 0 -2 24 2 53 10 47 12 63 45 155 313 386 1121 753 1114 1123 -21 84 -257
99 -287 143 -296 65 -12 57 50 -45 360 -231 705 -505 1002 -800 868z"/>
<path d="M2788 5989 c-122 -45 -239 -155 -298 -281 -38 -80 -61 -108 -83 -100
-17 7 -169 12 -339 12 -295 0 -308 2 -308 40 0 27 -13 40 -40 40 -27 0 -40
-13 -40 -40 0 -38 -17 -39 -401 -45 l-401 -5 2 -1490 1 -1491 -380 -179 -381
-180 0 -186 c0 -223 -46 -222 414 -2 182 87 334 158 338 158 4 0 8 -67 8 -150
0 -142 -2 -150 -45 -150 -354 -2 -554 -499 -329 -815 233 -327 831 -225 907
154 l12 60 1507 0 1506 0 13 -70 c58 -307 464 -487 765 -337 374 186 395 739
35 929 l-81 44 4 1262 4 1262 351 160 350 161 0 185 c1 102 -7 185 -16 185 -9
0 -164 -67 -343 -150 -179 -82 -332 -150 -339 -150 -8 0 -10 180 -5 400 l9
400 -467 3 c-258 1 -447 6 -422 11 52 10 49 52 -4 63 -22 4 -39 -9 -46 -35
-10 -41 -23 -42 -368 -42 -197 0 -365 -1 -373 -1 -8 -1 -21 25 -29 57 -62 238
-434 407 -688 313z m81 -217 c68 -29 111 -83 111 -141 0 -50 -114 -41 -130 10
-19 59 -160 49 -160 -11 0 -32 24 -46 119 -71 145 -39 203 -101 181 -198 -41
-187 -403 -179 -434 9 -10 65 89 66 131 1 36 -54 90 -65 154 -30 73 39 42 75
-106 122 -121 39 -148 56 -164 102 -54 156 124 279 298 207z m466 -44 c106
-68 79 -205 -61 -308 l-95 -70 111 -6 c102 -6 110 -10 110 -55 0 -48 -2 -49
-180 -49 l-180 0 0 52 c0 50 53 114 185 223 60 49 71 107 28 143 -37 30 -93 7
-93 -38 0 -47 -98 -68 -115 -24 -48 125 157 218 290 132z m-886 -342 c39 -204
211 -378 412 -416 l69 -13 -4 -563 -4 -564 -69 -34 c-89 -45 -150 -123 -179
-233 -23 -87 -26 -90 -232 -186 -242 -113 -228 -119 -271 113 -78 425 -61 883
60 1586 60 352 60 348 5 340 -32 -4 -50 -26 -64 -76 -10 -38 -21 -73 -23 -76
-5 -8 -287 93 -363 130 -134 65 -127 135 -125 -1188 l1 -1196 -306 -154 c-168
-84 -313 -154 -321 -155 -8 0 -15 620 -15 1379 l0 1380 708 0 708 0 13 -74z
m2566 -288 l-5 -361 -327 -149 c-180 -81 -330 -148 -335 -148 -4 0 -8 221 -8
490 l0 490 -48 0 c-27 0 -52 -8 -55 -17 -4 -9 -79 -42 -167 -72 -88 -30 -171
-59 -184 -64 -16 -6 -33 22 -46 77 -29 113 -134 141 -111 29 33 -161 111 -644
133 -832 18 -151 35 -218 62 -245 36 -36 35 -37 -14 -59 -46 -22 -59 -14 -169
91 -144 137 -327 227 -520 256 l-141 21 0 187 c0 160 5 188 32 188 153 0 388
261 388 429 l0 51 760 0 761 0 -6 -362z m-2898 52 c4 -4 -12 -137 -35 -294
-91 -613 -92 -1095 -2 -1445 22 -87 38 -159 35 -162 -9 -7 -335 -62 -340 -57
-3 2 -3 473 0 1046 l6 1041 164 -61 c90 -33 167 -64 172 -68z m2123 -316 l0
-446 -110 -54 c-149 -73 -150 -72 -150 71 0 112 -62 585 -91 703 -10 41 218
156 336 170 8 1 15 -199 15 -444z m1600 89 l0 -136 -328 -154 c-181 -84 -334
-153 -340 -153 -7 0 -12 63 -12 140 l0 140 75 30 c41 17 188 83 325 148 138
65 257 119 265 120 8 1 15 -59 15 -135z m-824 -383 l-6 -141 -498 -230 c-274
-126 -499 -228 -502 -225 -2 4 -31 58 -65 122 l-62 116 74 29 c40 16 289 128
553 249 264 120 487 219 496 219 9 1 13 -62 10 -139z m-1655 -51 c26 -27 59
-46 73 -40 23 9 79 -63 62 -80 -41 -41 -487 -205 -500 -184 -41 63 -6 100 148
160 140 55 152 64 134 99 -48 89 11 122 83 45z m1659 -1339 l0 -1210 -71 0
c-38 0 -103 -14 -144 -31 l-73 -30 -506 505 c-378 378 -498 509 -476 521 16 9
71 72 123 141 123 164 124 164 120 122 -3 -35 8 -39 205 -80 46 -10 47 -14 38
-170 -10 -171 11 -235 71 -212 30 11 33 79 33 672 l0 659 145 66 c80 37 231
109 335 160 105 52 192 95 195 96 3 0 5 -543 5 -1209z m-1575 943 c198 -30
187 -25 205 -96 12 -49 6 -55 -128 -108 -100 -39 -142 -66 -142 -90 0 -43 -61
-69 -82 -36 -12 19 -27 19 -67 1 -48 -22 -54 -19 -72 30 -21 54 -1 85 56 86
32 0 32 0 -15 110 -48 113 -48 105 -5 116 56 15 67 14 250 -13z m795 -506 l0
-392 -75 12 c-41 7 -95 13 -120 13 -28 0 -45 12 -45 33 0 31 -3 31 -37 0 -118
-107 -301 39 -208 165 63 84 200 86 231 3 12 -33 29 -61 37 -61 39 0 45 403 7
502 -10 28 125 109 195 116 8 1 15 -175 15 -391z m-489 164 c142 -142 -45
-371 -302 -371 -187 0 -253 196 -103 307 158 116 326 143 405 64z m-683 -103
c7 -17 12 -53 12 -80 0 -26 8 -48 18 -48 43 0 -13 -111 -65 -129 -71 -25 -162
26 -166 93 -5 104 169 248 201 164z m-502 -492 c-85 -86 -173 -162 -196 -169
-35 -11 -580 -263 -1165 -539 l-185 -87 0 145 0 144 265 124 c146 68 517 244
825 392 l560 268 26 -61 c25 -60 24 -62 -130 -217z m434 38 c50 2 110 7 134
10 35 5 195 -145 754 -702 l709 -708 -57 -72 c-31 -40 -68 -110 -81 -156 l-25
-84 -1492 0 -1492 -1 -44 125 -44 124 734 742 c595 601 742 739 774 730 22 -7
81 -10 130 -8z m560 -7 c0 34 88 -27 93 -66 6 -33 0 -42 -22 -34 -20 8 -25 1
-17 -21 9 -22 -1 -19 -31 11 -25 25 -39 53 -33 64 7 10 -1 13 -18 7 -21 -8
-29 1 -27 29 3 31 10 36 29 20 14 -12 26 -17 26 -10z m-1640 -682 c-224 -228
-463 -472 -531 -542 l-123 -127 -123 57 -123 57 0 180 0 181 255 118 c140 66
431 203 645 305 215 102 394 186 399 186 4 0 -175 -187 -399 -415z m-1040 -74
c0 -136 -4 -149 -45 -162 -25 -8 -184 -81 -353 -162 -170 -81 -311 -147 -315
-147 -4 0 -7 62 -7 137 l0 137 355 171 c195 95 357 173 360 174 3 0 5 -66 5
-148z m3968 -739 c106 -44 135 -152 41 -152 -38 0 -69 9 -69 20 0 12 -21 31
-47 42 -56 26 -133 -5 -133 -52 0 -26 37 -40 204 -81 81 -19 120 -74 112 -160
-18 -218 -436 -206 -436 12 0 38 117 21 129 -19 22 -68 191 -62 191 7 0 35
-45 61 -139 78 -117 23 -161 64 -161 150 0 154 140 225 308 155z m-3961 -37
c82 -74 89 -135 15 -135 -40 0 -68 14 -82 40 -26 48 -123 54 -159 11 -37 -44
-11 -66 112 -93 192 -43 262 -172 153 -281 -113 -113 -406 -39 -406 102 0 38
109 23 135 -19 31 -50 148 -55 187 -8 35 42 -18 84 -127 101 -257 41 -234 327
27 327 71 0 108 -11 145 -45z m4392 16 c84 -44 110 -142 50 -191 -25 -22 -26
-30 -3 -58 110 -129 -12 -304 -188 -269 -122 25 -190 187 -78 187 46 0 60 -9
60 -39 0 -51 75 -74 114 -35 44 43 16 114 -45 114 -68 0 -71 94 -4 104 65 9
64 103 -1 113 -34 4 -50 -6 -58 -35 -8 -31 -27 -42 -70 -42 -51 0 -57 6 -46
45 33 115 157 163 269 106z m-3999 -251 l0 -260 -60 0 -60 0 0 170 0 170 -60
0 c-51 0 -60 8 -60 50 0 40 10 50 49 50 29 0 58 17 71 40 13 23 42 40 71 40
l49 0 0 -260z"/>
<path d="M3281 4024 c4 -78 49 -98 136 -59 48 21 84 41 80 44 -17 13 -217 28
-216 15z"/>
<path d="M3836 3380 c-34 -28 -40 -43 -23 -60 36 -37 116 -16 123 32 8 59 -44
74 -100 28z"/>
<path d="M3490 3641 c-112 -49 -146 -93 -105 -134 60 -61 338 65 309 140 -17
43 -101 41 -204 -6z"/>
<path d="M2444 2736 c-38 -38 -30 -57 57 -137 l81 -75 30 -477 c33 -535 32
-527 87 -527 79 0 25 1072 -55 1112 -26 13 -71 47 -101 75 -63 61 -66 62 -99
29z"/>
<path d="M3423 2662 l-107 -96 -27 -418 c-40 -613 -40 -628 19 -628 57 0 59
12 93 610 l22 380 69 57 c91 76 118 127 87 164 -33 40 -36 39 -156 -69z"/>
<path d="M2660 1265 c0 -95 63 -1101 71 -1140 12 -54 521 -72 539 -20 11 31
70 957 70 1094 0 103 -97 167 -102 66 0 -19 -16 -269 -35 -555 l-33 -520 -164
-6 -163 -6 -11 86 c-6 47 -20 275 -32 506 -27 518 -29 530 -92 530 -32 0 -48
-11 -48 -35z"/>
<path d="M4190 590 l0 -270 55 0 c54 0 55 2 55 120 l0 120 100 0 100 0 0 -120
c0 -120 0 -120 60 -120 l60 0 0 270 0 270 -60 0 c-59 0 -60 -2 -60 -100 l0
-100 -100 0 -100 0 0 100 c0 96 -2 100 -55 100 l-55 0 0 -270z"/>
<path d="M5570 815 c-58 -50 -87 -210 -61 -344 39 -208 303 -209 342 -1 54
288 -111 491 -281 345z m160 -75 c46 -74 7 -340 -50 -340 -69 0 -105 251 -49
342 15 24 83 23 99 -2z"/>
<path d="M4853 810 c-7 -17 -39 -36 -73 -43 -85 -17 -85 -87 0 -87 l60 0 0
-180 0 -180 60 0 60 0 0 260 0 260 -48 0 c-26 0 -53 -14 -59 -30z"/>
<path d="M5212 732 c-168 -264 -171 -292 -22 -292 109 0 110 -1 110 -60 0 -51
8 -60 50 -60 42 0 50 9 50 60 0 40 10 60 30 60 17 0 30 18 30 40 0 22 -13 40
-30 40 -24 0 -30 31 -30 160 l0 160 -59 0 c-50 0 -71 -17 -129 -108z m88 -112
c0 -98 -1 -100 -60 -100 -72 0 -72 -6 -8 107 64 116 68 116 68 -7z"/>
</g>
<g transform="translate(0.000000,1900.000000) scale(0.050000,-0.050000)"
fill="#504e54" stroke="none" id="HE3">
<path d="M2875 6980 c-224 -67 -470 -512 -645 -1163 -64 -239 -64 -241 9 -205
39 20 63 50 72 94 63 292 281 822 416 1010 267 373 554 116 837 -748 90 -278
112 -327 161 -354 l55 -32 -12 54 c-205 920 -554 1446 -893 1344z"/>
<path d="M2927 6102 c-174 -44 -324 -189 -375 -364 l-25 -84 -169 -44 c-656
-170 -1283 -783 -1469 -1436 -19 -70 -46 -121 -66 -127 -235 -75 -362 -244
-363 -483 0 -208 112 -384 292 -457 64 -27 92 -51 100 -87 6 -27 29 -103 50
-168 21 -66 36 -120 33 -121 -3 -2 -81 -37 -175 -78 -587 -258 -710 -324 -707
-374 8 -154 32 -319 47 -319 20 0 699 309 876 398 l118 60 94 -137 c492 -721
1463 -1082 2312 -861 772 201 1404 811 1576 1519 34 137 35 139 116 159 520
132 514 864 -8 987 -86 20 -108 34 -118 75 -7 27 -28 87 -47 132 l-35 82 453
210 453 210 -5 138 c-10 281 47 281 -570 -2 -276 -127 -503 -228 -505 -225 -2
3 -34 50 -71 105 -37 55 -143 175 -235 267 l-168 167 3 248 c3 209 -2 250 -28
260 -64 25 -91 -28 -78 -154 l13 -118 -65 -23 c-69 -24 -52 -56 30 -57 38 0
125 -111 104 -132 -5 -5 -53 23 -107 62 -54 38 -116 78 -138 88 -22 10 -108
50 -190 89 -83 39 -186 79 -229 88 -76 16 -81 22 -115 136 -78 267 -355 435
-609 371z m53 -259 c71 -52 80 -143 14 -143 -27 0 -61 17 -77 38 -37 52 -102
68 -146 35 -60 -44 -24 -87 92 -112 211 -45 271 -175 135 -289 -129 -109 -378
-32 -378 117 0 46 94 40 119 -8 42 -78 201 -78 201 0 0 22 -11 44 -25 48 -14
5 -76 22 -138 39 -93 26 -116 42 -138 93 -72 176 172 306 341 182z m435 -34
c88 -100 59 -196 -93 -306 l-88 -63 113 0 c107 0 113 -3 113 -50 0 -50 -1 -50
-180 -50 -149 0 -180 5 -180 31 0 61 57 140 148 205 97 70 128 166 62 191 -45
18 -90 -7 -90 -49 0 -29 -14 -38 -60 -38 -70 0 -80 43 -28 117 67 96 204 101
283 12z m-848 -385 c28 -96 159 -234 263 -277 l90 -37 0 -625 c0 -582 -2 -625
-35 -625 -59 0 -164 -76 -208 -150 l-41 -70 -587 0 -587 0 -23 85 c-31 118
-197 278 -325 314 -112 31 -111 19 -25 234 223 552 715 1007 1286 1187 148 47
170 43 192 -36z m1343 -108 c256 -129 471 -305 655 -535 l120 -149 -78 -34
c-42 -19 -120 -52 -172 -75 l-95 -42 0 239 c0 225 -3 241 -49 291 l-50 54 -5
-315 c-5 -256 -12 -319 -36 -333 -16 -9 -91 -45 -165 -79 l-135 -63 -125 127
c-179 184 -453 317 -650 318 l-65 0 0 190 c0 186 1 190 47 190 137 0 413 214
413 321 0 73 80 52 390 -105z m1918 -281 c5 -36 14 -97 19 -136 l9 -71 -431
-199 c-237 -109 -437 -201 -444 -204 -13 -6 -122 206 -118 230 2 14 908 441
941 444 8 0 19 -28 24 -64z m-1048 -574 c26 -56 43 -104 38 -109 -4 -4 -182
-89 -394 -188 l-386 -181 -53 114 c-29 62 -56 120 -61 128 -4 8 28 28 71 45
43 17 217 97 386 178 339 160 330 160 399 13z m-1282 47 c183 -153 -136 -490
-365 -386 -93 43 -134 206 -68 271 37 38 87 -29 78 -105 -7 -54 38 -89 94 -75
45 12 45 12 6 55 -154 166 81 387 255 240z m1396 -313 l40 -104 -101 -51
c-119 -60 -224 -187 -258 -313 l-23 -87 -226 0 c-256 0 -232 -18 -256 201
l-12 110 76 30 c42 16 83 32 91 36 8 3 15 -65 15 -153 0 -154 2 -160 50 -169
l50 -9 0 193 0 193 235 112 c289 138 271 138 319 11z m-1183 -44 c127 -127 8
-316 -247 -392 -99 -30 -171 6 -213 106 -78 185 316 430 460 286z m288 -295
c59 -106 -46 -239 -165 -209 -70 18 -121 113 -95 180 41 107 206 126 260 29z
m-3130 -4 c68 -29 111 -83 111 -141 0 -47 -94 -39 -121 10 -31 58 -169 49
-169 -11 0 -32 24 -46 115 -70 206 -55 263 -179 133 -288 -129 -109 -377 -42
-378 103 0 64 85 61 128 -5 36 -54 126 -68 168 -26 56 56 18 85 -162 125 -173
38 -179 259 -8 309 91 26 107 26 183 -6z m4126 -23 c48 -32 88 -106 71 -134
-18 -32 -105 -14 -127 26 -30 58 -169 49 -169 -10 0 -32 25 -46 124 -72 178
-47 225 -114 174 -248 -47 -121 -342 -115 -407 8 -55 102 43 149 107 51 39
-59 131 -68 181 -18 35 34 11 88 -38 88 -78 0 -226 64 -246 106 -79 175 154
318 330 203z m382 9 c93 -32 139 -154 81 -212 -16 -16 -12 -36 12 -73 91 -139
-62 -289 -246 -240 -42 11 -104 98 -104 146 0 41 115 24 126 -19 14 -55 107
-55 124 1 16 49 -21 99 -72 99 -60 0 -49 77 13 92 41 10 50 23 45 65 -8 67
-77 72 -106 8 -18 -42 -87 -62 -115 -33 -28 28 34 134 93 159 77 34 73 34 149
7z m-4077 -258 l0 -260 -62 0 -62 0 7 175 7 175 -60 1 c-46 0 -61 10 -66 45
-6 36 3 44 44 44 30 0 62 17 77 40 13 22 45 40 70 40 44 0 45 -3 45 -260z
m1834 156 c82 -79 83 -118 6 -183 -33 -28 -60 -59 -60 -69 0 -22 -67 -43 -135
-44 -25 0 -45 9 -45 19 0 11 -12 15 -26 10 -15 -6 -39 13 -55 42 -27 51 -24
56 95 171 143 138 135 136 220 54z m-743 -337 c-185 -83 -231 -87 -231 -22 0
25 -18 42 -52 48 -51 10 -52 8 -39 -75 l13 -84 -107 -13 c-59 -7 -136 -18
-171 -25 l-64 -13 0 110 c0 106 -2 109 -49 100 -48 -9 -50 -16 -55 -191 l-6
-181 -270 -124 c-148 -69 -276 -119 -282 -112 -14 14 -78 200 -78 225 0 8 29
21 65 29 168 36 327 176 373 329 l24 80 554 0 554 -1 -179 -80z m2195 26 c20
-100 122 -214 246 -276 65 -33 121 -61 125 -63 15 -8 -103 -337 -162 -456
-677 -1350 -2567 -1508 -3464 -289 -106 144 -111 133 99 225 88 38 305 137
483 219 l322 150 45 -79 c25 -44 91 -126 149 -183 l104 -103 24 -350 c43 -616
44 -622 91 -640 70 -27 71 -6 33 497 -21 268 -34 498 -30 510 11 30 -7 52 -94
117 -71 53 -217 234 -217 269 0 9 74 49 163 87 109 47 182 93 223 141 l60 72
84 -28 c148 -49 331 33 390 175 l25 60 645 0 645 0 11 -55z m-1920 0 c7 -19
28 -60 48 -91 36 -57 36 -57 -24 -110 -53 -48 -1466 -716 -1480 -700 -27 30
-110 223 -100 232 18 19 1496 700 1523 702 12 1 27 -14 33 -33z m-2062 -1189
c-258 -119 -473 -213 -477 -209 -4 4 -10 67 -12 141 l-5 134 420 195 420 195
62 -120 63 -120 -471 -216z"/>
<path d="M2171 5322 c-20 -23 -60 -42 -88 -42 -45 0 -47 -3 -17 -25 32 -23 32
-37 4 -182 -121 -630 -130 -1357 -18 -1378 l49 -10 -13 283 c-15 308 3 525 85
1038 55 344 54 377 -2 316z"/>
<path d="M1685 5027 c-45 -55 -45 -62 -45 -689 l0 -633 48 -9 c42 -8 49 -1 60
62 15 95 11 1196 -5 1269 l-13 56 -45 -56z"/>
<path d="M3735 5348 c-5 -5 3 -78 18 -163 15 -85 45 -290 68 -455 34 -256 47
-305 85 -337 l44 -38 6 96 c6 81 -49 529 -88 722 -9 49 -3 63 35 82 45 22 45
22 -18 24 -36 0 -82 18 -103 39 -21 21 -43 35 -47 30z"/>
<path d="M3343 4428 c-66 -46 -51 -118 25 -118 70 0 112 54 80 104 -30 48 -52
51 -105 14z"/>
<path d="M3470 4033 c-128 -72 -169 -156 -80 -169 105 -14 318 173 247 218
-37 24 -33 25 -167 -49z"/>
<path d="M3822 3813 c-24 -30 -10 -93 21 -93 44 0 97 44 97 81 0 47 -82 55
-118 12z"/>
<path d="M3847 3426 c-33 -6 -56 -47 -105 -184 -78 -216 -238 -466 -351 -546
l-84 -59 -34 -464 c-47 -642 -43 -674 63 -583 3 3 22 222 43 487 l37 482 119
119 c84 84 147 175 215 309 89 177 100 190 148 181 29 -5 115 -21 192 -34
l140 -25 3 -159 c3 -218 1 -210 57 -210 l50 0 0 345 0 345 -50 0 c-47 0 -50
-6 -50 -105 0 -58 -2 -105 -5 -105 -3 0 -81 14 -175 30 -93 16 -173 30 -177
30 -3 0 0 36 7 80 7 44 10 79 7 77 -4 -1 -26 -6 -50 -11z"/>
<path d="M1653 5747 c-7 -8 -13 -113 -13 -235 l0 -222 45 56 c25 30 72 63 105
72 l60 17 -52 21 c-49 19 -51 27 -42 132 11 134 -43 218 -103 159z"/>
<path d="M2636 1305 c-11 -49 74 -1173 92 -1202 21 -33 460 -32 487 2 11 14
35 236 53 495 19 259 39 531 46 605 12 134 11 135 -39 135 -66 0 -66 4 -105
-570 -44 -636 -21 -570 -200 -570 -83 0 -150 9 -150 19 0 70 -82 1076 -90
1096 -13 38 -84 30 -94 -10z"/>
<path d="M4440 620 l0 -280 61 0 62 0 -5 125 -6 125 104 6 104 6 0 -132 0
-133 55 7 55 6 0 270 0 270 -55 6 c-54 7 -55 5 -55 -105 l0 -111 -100 0 -100
0 0 110 c0 109 -1 110 -60 110 l-60 0 0 -280z"/>
<path d="M4980 615 l0 -275 197 0 c219 0 221 1 208 72 -10 50 -14 51 -148 45
l-137 -7 0 65 0 65 130 0 c125 0 130 2 130 50 0 48 -5 50 -130 50 -130 0 -130
0 -130 57 l0 58 140 -10 140 -10 0 57 0 58 -200 0 -200 0 0 -275z"/>
<path d="M5489 831 c-65 -65 -66 -131 0 -131 30 0 53 14 60 38 17 52 72 70
107 34 36 -36 17 -92 -36 -106 -53 -14 -53 -86 -1 -86 76 0 99 -121 28 -148
-40 -16 -107 22 -107 59 0 18 -19 29 -50 29 -70 0 -68 -83 3 -139 157 -123
431 92 277 219 -21 17 -24 34 -10 61 88 164 -136 305 -271 170z"/>
</g>
<g transform="translate(0.000000,2500.000000) scale(0.050000,-0.050000)"
fill="#504e54" stroke="none" id="HR3">
<path d="M2850 6924 c-224 -143 -400 -476 -580 -1098 -66 -224 -65 -235 5
-199 48 25 68 68 151 329 379 1187 784 1181 1163 -16 79 -250 99 -293 144
-314 l52 -25 -12 87 c-34 250 -277 857 -422 1055 -146 199 -354 274 -501 181z"/>
<path d="M1673 5709 c-19 -48 -16 -290 5 -362 28 -97 -240 -338 -338 -304
-469 164 -856 -489 -492 -832 l67 -63 -38 -149 c-85 -331 -64 -777 52 -1121
28 -81 44 -151 36 -154 -8 -3 -208 -94 -445 -203 l-430 -197 7 -177 c3 -97 13
-184 21 -192 8 -8 238 88 511 215 580 269 508 251 578 140 234 -371 754 -740
1205 -856 l171 -44 41 -95 c164 -381 805 -342 944 59 22 65 38 76 173 124
1057 374 1694 1590 1366 2607 l-30 96 59 68 c33 37 70 99 83 137 17 54 41 78
99 101 250 100 602 282 601 311 -1 54 -38 328 -46 335 -4 4 -161 -64 -350
-151 l-342 -159 -42 58 c-93 131 -327 215 -493 178 l-94 -21 -98 98 -98 98 -3
238 c-3 224 -5 238 -43 238 -36 0 -41 -15 -46 -149 -3 -82 -16 -161 -27 -175
-16 -19 -14 -26 7 -26 34 0 108 -75 91 -91 -6 -6 -60 20 -121 59 -723 463
-1639 474 -2370 30 -134 -81 -192 -88 -104 -11 70 60 60 359 -12 369 -25 4
-48 -7 -55 -27z m1803 -209 c91 -22 205 -58 254 -80 48 -22 95 -40 104 -41 30
-1 342 -189 419 -252 43 -35 99 -81 126 -102 l48 -39 -71 -72 c-107 -106 -153
-297 -112 -454 12 -46 4 -54 -120 -106 -74 -32 -165 -73 -204 -93 -69 -36 -71
-35 -104 6 -34 42 -34 42 -35 -31 -2 -128 -132 -185 -221 -96 -91 91 -30 240
98 240 l72 1 -139 90 c-480 311 -1154 186 -1433 -264 -53 -86 -43 -87 -272 51
-149 90 -194 127 -189 155 36 193 -3 354 -113 472 -31 33 -44 62 -33 71 100
84 253 207 314 252 l74 56 91 -37 c49 -20 90 -43 90 -50 0 -7 -18 -120 -41
-250 -66 -389 -76 -667 -22 -667 50 0 51 2 94 360 18 149 50 365 71 480 52
293 52 301 -20 232 -39 -37 -86 -58 -145 -65 l-87 -10 50 41 c28 23 91 57 140
75 50 19 99 41 110 49 29 22 341 99 480 119 176 25 536 5 726 -41z m2381 -548
l16 -134 -309 -149 c-352 -169 -332 -162 -318 -108 6 23 -1 87 -15 142 l-26
101 162 73 c90 40 231 105 313 145 178 86 157 94 177 -70z m-1125 -134 c62
-58 65 -138 5 -138 -23 0 -63 23 -89 50 -52 57 -84 62 -137 23 -59 -43 -24
-84 93 -110 154 -34 196 -69 196 -161 0 -163 -259 -245 -388 -124 -75 70 -70
142 8 142 40 0 60 -10 60 -30 0 -43 86 -78 150 -62 101 26 59 97 -79 133 -150
40 -207 104 -179 203 37 132 252 176 360 74z m-3606 19 c56 -30 93 -78 93
-122 1 -51 -102 -47 -135 6 -36 58 -151 48 -160 -14 -7 -46 -6 -46 156 -88
168 -43 214 -159 107 -266 -111 -111 -387 -50 -387 86 0 58 111 59 126 1 14
-53 168 -59 188 -7 16 43 -36 81 -139 98 -166 28 -224 163 -117 271 65 64 184
79 268 35z m433 -17 c57 -30 83 -125 51 -187 -22 -43 -22 -55 2 -74 44 -37 35
-159 -15 -213 -93 -98 -317 -37 -317 87 0 62 98 68 114 8 17 -67 109 -73 134
-9 17 45 -8 87 -60 100 -65 17 -63 80 3 97 39 9 50 23 45 57 -8 61 -95 73
-110 16 -19 -72 -134 -59 -117 13 25 107 166 161 270 105z m3561 -240 l0 -260
-65 0 -65 0 7 180 7 180 -72 0 c-59 0 -72 7 -72 40 0 29 13 40 50 40 28 0 61
17 75 40 15 24 46 40 80 40 l55 0 0 -260z m-833 -239 c-77 -69 -376 -219 -390
-197 -28 44 -13 55 183 145 166 75 260 99 207 52z m-1722 -66 c-3 -8 -5 -127
-5 -265 l0 -250 -48 0 c-56 0 -80 86 -69 254 6 95 5 96 -59 102 -82 8 -95 84
-14 84 31 0 62 19 82 51 31 46 127 67 113 24z m449 -18 c99 -83 68 -226 -71
-322 l-93 -65 115 -6 c107 -6 115 -9 115 -55 0 -49 -2 -49 -192 -49 l-192 0
12 55 c7 31 64 102 133 165 122 113 142 156 89 200 -38 31 -91 11 -104 -40
-19 -71 -131 -56 -114 15 32 132 198 188 302 102z m374 20 c162 -74 131 -497
-40 -529 -144 -27 -229 73 -227 266 3 226 112 334 267 263z m-1693 -84 c41
-26 174 -104 295 -173 121 -69 283 -164 360 -210 77 -46 183 -108 235 -138
169 -96 145 -143 -137 -270 -128 -57 -236 -100 -241 -96 -4 4 -27 129 -51 276
-39 244 -72 338 -119 338 -44 0 11 -488 71 -621 11 -26 -15 -37 -157 -62
l-171 -29 0 425 c0 417 -1 425 -45 456 -69 49 -74 13 -71 -534 1 -273 -3 -501
-9 -507 -32 -32 -525 -246 -536 -233 -109 120 -171 742 -108 1085 l31 170 154
0 c164 1 273 41 352 128 48 53 56 52 147 -5z m2734 -3 c47 -36 60 -26 -179
-136 -110 -50 -308 -142 -440 -204 -310 -146 -279 -119 140 121 187 107 358
207 379 222 49 33 51 33 100 -3z m340 -105 c67 5 135 15 152 23 25 11 37 -8
55 -89 232 -1005 -294 -1993 -1268 -2376 l-101 -40 -25 98 c-46 177 -215 329
-396 356 l-87 13 0 580 c0 454 5 581 25 588 106 33 226 207 212 306 -5 36 27
57 234 151 132 60 333 154 448 207 114 54 215 98 225 98 9 0 17 -175 17 -390
0 -299 -6 -390 -25 -390 -123 -1 -334 50 -326 78 55 179 105 542 74 542 -60 0
-99 -78 -131 -268 -67 -401 -201 -686 -409 -875 l-118 -107 -14 -255 c-9 -167
-7 -255 6 -255 11 0 34 -14 52 -31 18 -19 31 -23 31 -9 0 13 10 129 22 259
l21 236 125 128 c107 110 249 339 295 477 9 26 43 22 341 -33 54 -10 55 -11
60 -193 6 -169 9 -184 46 -184 39 0 40 17 50 667 l10 667 69 35 c62 33 75 33
139 6 47 -19 111 -26 191 -20z m-1642 -515 c7 -16 3 -30 -7 -30 -10 0 -13 -15
-6 -33 9 -25 6 -29 -14 -17 -20 12 -23 8 -14 -17 30 -79 -82 -106 -151 -37
-74 74 -45 135 72 150 35 4 73 9 86 11 12 2 28 -10 34 -27z m-427 -137 c0 -15
19 -51 41 -80 l41 -52 -49 -66 c-47 -60 -1457 -739 -1481 -713 -18 20 -114
223 -108 229 4 3 241 114 526 245 286 132 628 289 760 350 270 124 270 124
270 87z m189 -193 l51 -19 0 -588 0 -589 -46 -11 c-144 -36 -279 -193 -315
-366 l-21 -103 -144 45 c-316 101 -576 253 -801 469 -122 117 -342 380 -328
393 5 4 894 419 949 442 13 6 39 -20 58 -56 19 -37 86 -121 149 -187 l115
-120 24 -310 c13 -170 32 -323 41 -340 15 -26 18 -26 18 3 1 17 15 44 33 59
28 23 30 65 18 331 l-15 306 -157 160 c-196 198 -196 198 13 291 118 53 188
97 223 143 56 74 61 76 135 47z m-1831 -676 l59 -116 -465 -214 c-542 -250
-511 -243 -515 -114 -2 55 -4 115 -5 134 -2 29 782 419 853 425 8 0 41 -51 73
-115z m1964 -822 c32 -33 58 -73 58 -90 0 -48 -105 -41 -135 8 -31 49 -129 54
-167 8 -36 -44 6 -74 152 -106 132 -30 181 -86 160 -181 -45 -204 -450 -179
-450 28 0 32 121 7 140 -29 27 -50 143 -55 182 -8 27 33 -17 88 -71 88 -130 1
-231 76 -231 172 0 165 235 236 362 110z m429 -11 c99 -99 67 -197 -111 -335
l-70 -54 115 -1 c163 -1 171 -69 10 -88 -311 -37 -347 33 -116 228 81 69 102
98 97 138 -9 74 -89 82 -115 12 -28 -73 -121 -73 -121 0 0 80 83 149 180 149
60 0 95 -13 131 -49z"/>
<path d="M3740 5374 c0 -4 18 -106 40 -228 22 -121 57 -358 79 -526 44 -343
37 -323 99 -306 44 11 45 18 33 144 -20 194 -87 649 -102 688 -10 26 2 40 49
56 81 28 79 50 -6 66 -37 7 -79 27 -93 44 -25 30 -99 76 -99 62z"/>
<path d="M1715 5031 c-43 -59 -45 -182 -5 -278 17 -39 30 -125 30 -191 0 -66
9 -125 20 -132 13 -8 20 103 20 319 0 341 -5 364 -65 282z"/>
<path d="M4263 4970 c1 -113 2 -115 19 -46 10 44 10 94 -1 120 -14 35 -18 18
-18 -74z"/>
<path d="M3624 4296 c-34 -34 -30 -86 8 -118 56 -46 117 65 64 118 -13 13 -29
24 -36 24 -7 0 -23 -11 -36 -24z"/>
<path d="M3261 4172 c-37 -45 -19 -293 23 -319 52 -33 81 9 91 131 14 169 -47
268 -114 188z"/>
<path d="M2669 1045 c7 -74 26 -314 42 -532 16 -219 34 -406 40 -415 18 -29
489 -22 499 7 9 27 70 795 70 879 0 43 -7 49 -49 41 -59 -11 -61 -25 -97 -505
l-24 -330 -152 -6 -151 -6 -25 346 c-33 471 -41 529 -85 579 -20 24 -37 51
-37 60 0 9 -10 17 -21 17 -14 0 -17 -46 -10 -135z"/>
<path d="M4430 750 l0 -270 55 0 c54 0 55 2 55 120 l0 120 100 0 100 0 0 -120
c0 -120 0 -120 60 -120 l60 0 0 270 0 270 -62 0 c-62 0 -62 0 -55 -100 l7
-100 -105 0 -105 0 0 100 c0 96 -2 100 -55 100 l-55 0 0 -270z"/>
<path d="M4960 750 l0 -270 60 0 c59 0 60 1 60 110 l0 110 65 0 c92 -1 111
-19 122 -120 6 -50 11 -92 12 -95 0 -3 33 -5 72 -5 63 0 68 4 50 39 -12 21
-21 69 -21 106 0 37 -11 78 -24 91 -18 18 -15 32 10 60 114 125 -1 244 -235
244 l-171 0 0 -270z m310 100 c0 -57 -4 -60 -95 -66 l-95 -6 0 72 0 72 95 -6
c91 -6 95 -9 95 -66z"/>
<path d="M5569 1002 c-49 -21 -80 -57 -98 -117 -19 -62 77 -65 110 -4 32 60
109 45 109 -21 0 -37 -12 -52 -46 -57 -62 -8 -54 -90 10 -99 53 -8 79 -74 44
-116 -34 -42 -104 -27 -128 27 -27 63 -110 62 -110 -1 0 -143 241 -199 333
-78 34 45 34 147 0 193 -22 30 -23 47 -2 86 61 117 -89 243 -222 187z"/>
</g>
</svg>
